<svg width="16" height="16" viewBox="0 0 16 16" fill="none" xmlns="http://www.w3.org/2000/svg">
<path d="M2.23727 0.5C1.30083 0.5 0.542358 1.24583 0.542358 2.16667V13.8333C0.542358 14.7542 1.30083 15.5 2.23727 15.5H14.1017C15.0381 15.5 15.7966 14.7542 15.7966 13.8333V2.16667C15.7966 1.24583 15.0381 0.5 14.1017 0.5H2.23727ZM2.23727 2.16667H14.1017V13.8333H2.23727V2.16667ZM4.59261 3.26367C3.86634 3.26367 3.43067 3.69298 3.43067 4.26465C3.43067 4.83632 3.86639 5.264 4.51978 5.264C5.24605 5.264 5.68173 4.83632 5.68173 4.26465C5.68173 3.69298 5.246 3.26367 4.59261 3.26367ZM3.4886 6.33333V12.1667H5.6271V6.33333H3.4886ZM7.39154 6.33333V12.1667H9.53004V8.97819C9.53004 8.02902 10.2187 7.89258 10.4255 7.89258C10.6323 7.89258 11.1852 8.09652 11.1852 8.97819V12.1667H13.2542V8.97819C13.2542 7.14736 12.4269 6.33333 11.3921 6.33333C10.3574 6.33333 9.80547 6.67213 9.53004 7.14713V6.33333H7.39154Z" fill="#27AE60"/>
</svg>
