<svg width="225" height="42" viewBox="0 0 225 42" fill="none" xmlns="http://www.w3.org/2000/svg">
<rect x="0.49353" width="10.3881" height="41.5979" rx="5.19404" fill="#6FCF97"/>
<path d="M15.0371 17.9619C15.0371 15.3517 17.1531 13.2357 19.7633 13.2357C22.3735 13.2357 24.4894 15.3517 24.4894 17.9619V28.582C24.4894 31.1922 22.3735 33.3082 19.7633 33.3082C17.1531 33.3082 15.0371 31.1922 15.0371 28.582V17.9619Z" fill="#27AE60"/>
<rect x="15.0371" y="1.89084" width="9.45234" height="10.0362" rx="4.72617" fill="#27AE60"/>
<rect x="28.8174" y="15.5574" width="9.45234" height="10.0362" rx="4.72617" fill="#6FCF97"/>
<path d="M61.7036 30.838V13.7353H68.037C69.4217 13.7353 70.5413 13.9233 71.396 14.2994C72.2678 14.6755 72.9089 15.2139 73.3191 15.9148C73.7294 16.5986 73.9345 17.4191 73.9345 18.3764C73.9345 19.1285 73.7892 19.7353 73.4986 20.1969C73.208 20.6413 72.8576 21.0003 72.4473 21.2738C72.0542 21.5473 71.6781 21.8037 71.3191 22.0431L70.9858 21.4533C71.6354 21.573 72.2593 21.8123 72.8576 22.1713C73.4559 22.5131 73.9431 22.9918 74.3191 23.6072C74.7123 24.2055 74.9089 24.9576 74.9089 25.8636C74.9089 27.026 74.6439 27.9747 74.114 28.7098C73.5841 29.4448 72.8405 29.9833 71.8832 30.3252C70.943 30.6671 69.8576 30.838 68.6268 30.838H61.7036ZM64.5498 28.479H68.6011C69.1994 28.479 69.755 28.4106 70.2678 28.2739C70.7977 28.12 71.2166 27.8465 71.5242 27.4534C71.849 27.0431 72.0114 26.4704 72.0114 25.7354C72.0114 25.1713 71.9089 24.7183 71.7037 24.3764C71.4986 24.0345 71.2251 23.7781 70.8832 23.6072C70.5584 23.4191 70.1824 23.2995 69.755 23.2482C69.3447 23.1798 68.9345 23.1456 68.5242 23.1456H64.5498V28.479ZM64.5242 20.8636H68.3704C68.8148 20.8636 69.2422 20.8123 69.6524 20.7097C70.0627 20.5901 70.4046 20.3678 70.6781 20.043C70.9516 19.7182 71.0883 19.2396 71.0883 18.6071C71.0883 17.6499 70.8148 17.0003 70.2678 16.6584C69.7379 16.2994 69.0285 16.1199 68.1396 16.1199H64.5242V20.8636ZM82.8188 31.2226C82.1522 31.2226 81.5111 31.1543 80.8957 31.0175C80.2803 30.8978 79.7162 30.6842 79.2034 30.3765C78.7077 30.0688 78.306 29.65 77.9983 29.12C77.7077 28.573 77.5624 27.8978 77.5624 27.0944C77.5624 26.1371 77.7504 25.3508 78.1265 24.7354C78.5025 24.12 79.041 23.6585 79.7419 23.3508C80.4427 23.0431 81.2803 22.8892 82.2547 22.8892C82.9043 22.8892 83.4855 22.9405 83.9983 23.0431C84.5282 23.1456 84.9983 23.2909 85.4086 23.479C85.8359 23.6499 86.1949 23.8465 86.4855 24.0687L86.7676 25.838C86.3915 25.5816 85.8872 25.3679 85.2547 25.1969C84.6223 25.0089 83.9385 24.9149 83.2034 24.9149C82.2291 24.9149 81.4855 25.0858 80.9727 25.4277C80.4769 25.7696 80.2291 26.2824 80.2291 26.9662C80.2291 27.479 80.3744 27.8978 80.665 28.2226C80.9556 28.5303 81.3145 28.7611 81.7419 28.9149C82.1863 29.0517 82.6479 29.12 83.1265 29.12C84.1351 29.12 84.8787 29.0517 85.3573 28.9149C85.8359 28.7782 86.0753 28.4619 86.0753 27.9662V22.5815C86.0753 21.6755 85.8018 21.0174 85.2547 20.6071C84.7077 20.1798 83.9299 19.9661 82.9214 19.9661C82.2034 19.9661 81.4598 20.0858 80.6906 20.3251C79.9214 20.5473 79.2889 20.8636 78.7931 21.2738V18.761C79.2718 18.4362 79.9641 18.1798 80.8701 17.9917C81.7932 17.7866 82.7419 17.684 83.7163 17.684C84.1949 17.684 84.6735 17.7353 85.1522 17.8379C85.6479 17.9234 86.1095 18.0687 86.5368 18.2738C86.9642 18.4618 87.3402 18.7268 87.665 19.0687C88.0069 19.3935 88.2719 19.7952 88.4599 20.2738C88.6479 20.7524 88.742 21.3166 88.742 21.9661V28.12C88.742 28.9577 88.477 29.6072 87.9471 30.0688C87.4343 30.5132 86.7334 30.8124 85.8445 30.9662C84.9556 31.1372 83.947 31.2226 82.8188 31.2226ZM95.1919 30.838H92.5252V13.0943H95.1919V30.838ZM101.652 30.838H98.9856V13.0943H101.652V30.838ZM110.985 31.2226C109.72 31.2226 108.617 30.9662 107.677 30.4534C106.754 29.9406 106.036 29.1799 105.523 28.1713C105.027 27.1628 104.779 25.932 104.779 24.479C104.779 22.2396 105.301 20.5473 106.343 19.402C107.403 18.2396 108.873 17.6584 110.754 17.6584C112.138 17.6584 113.258 17.9661 114.113 18.5815C114.968 19.1969 115.583 20.0601 115.959 21.1713C116.352 22.2653 116.54 23.5473 116.523 25.0174H106.395L106.318 23.0174H114.472L113.831 23.6585C113.779 22.3422 113.506 21.3849 113.01 20.7866C112.514 20.1712 111.737 19.8635 110.677 19.8635C109.993 19.8635 109.412 20.0088 108.933 20.2994C108.455 20.573 108.087 21.0516 107.831 21.7354C107.591 22.402 107.472 23.3251 107.472 24.5046C107.472 25.9405 107.805 27.0346 108.472 27.7867C109.138 28.5218 110.121 28.8893 111.42 28.8893C112.002 28.8893 112.54 28.838 113.036 28.7354C113.549 28.6329 114.019 28.5047 114.446 28.3508C114.873 28.1799 115.241 28.0175 115.549 27.8636V30.3508C114.95 30.6072 114.275 30.8124 113.523 30.9662C112.771 31.1372 111.925 31.2226 110.985 31.2226ZM119.619 30.838V19.1456C119.841 19.0088 120.251 18.8208 120.85 18.5815C121.448 18.3422 122.157 18.137 122.978 17.9661C123.798 17.7781 124.627 17.684 125.465 17.684C125.892 17.684 126.243 17.7182 126.516 17.7866C126.79 17.855 127.021 17.9319 127.209 18.0174V20.1712C126.816 20.12 126.405 20.0858 125.978 20.0687C125.551 20.0345 125.123 20.0345 124.696 20.0687C124.268 20.0858 123.85 20.12 123.439 20.1712C123.029 20.2225 122.653 20.2738 122.311 20.3251V30.838H119.619ZM129.937 30.838V18.043H132.63L132.655 30.838H129.937ZM129.86 15.9148V13.4789H132.732V15.9148H129.86ZM136.521 19.0174C136.897 18.8293 137.316 18.6584 137.777 18.5046C138.256 18.3336 138.76 18.1883 139.29 18.0687C139.82 17.949 140.359 17.855 140.906 17.7866C141.453 17.7182 141.983 17.684 142.495 17.684C143.709 17.684 144.701 17.855 145.47 18.1969C146.239 18.5217 146.812 19.0345 147.188 19.7353C147.564 20.4191 147.752 21.2824 147.752 22.3251V30.838H145.06V22.6841C145.06 22.3593 145.017 22.0431 144.931 21.7354C144.863 21.4106 144.718 21.12 144.496 20.8636C144.29 20.5901 143.983 20.3764 143.572 20.2225C143.179 20.0687 142.658 19.9918 142.008 19.9918C141.547 19.9918 141.068 20.0345 140.572 20.12C140.094 20.2054 139.641 20.3251 139.213 20.4789V30.838H136.521V19.0174ZM151.622 30.838V18.043H154.315L154.34 30.838H151.622ZM151.545 15.9148V13.4789H154.417V15.9148H151.545ZM165.621 30.838V13.7353H171.621C174.39 13.7353 176.45 14.4532 177.801 15.8892C179.151 17.3251 179.826 19.4533 179.826 22.2738C179.826 25.0944 179.151 27.2311 177.801 28.6841C176.45 30.1201 174.39 30.838 171.621 30.838H165.621ZM168.441 28.4534H171.339C173.253 28.4534 174.664 27.9662 175.57 26.9918C176.476 26.0004 176.929 24.4277 176.929 22.2738C176.929 20.1371 176.476 18.5729 175.57 17.5815C174.664 16.59 173.253 16.0943 171.339 16.0943H168.441V28.4534ZM188.609 31.2226C187.345 31.2226 186.242 30.9662 185.302 30.4534C184.379 29.9406 183.661 29.1799 183.148 28.1713C182.652 27.1628 182.404 25.932 182.404 24.479C182.404 22.2396 182.926 20.5473 183.968 19.402C185.028 18.2396 186.498 17.6584 188.379 17.6584C189.763 17.6584 190.883 17.9661 191.738 18.5815C192.592 19.1969 193.208 20.0601 193.584 21.1713C193.977 22.2653 194.165 23.5473 194.148 25.0174H184.02L183.943 23.0174H192.097L191.456 23.6585C191.404 22.3422 191.131 21.3849 190.635 20.7866C190.139 20.1712 189.362 19.8635 188.302 19.8635C187.618 19.8635 187.037 20.0088 186.558 20.2994C186.08 20.573 185.712 21.0516 185.456 21.7354C185.216 22.402 185.097 23.3251 185.097 24.5046C185.097 25.9405 185.43 27.0346 186.097 27.7867C186.763 28.5218 187.746 28.8893 189.045 28.8893C189.627 28.8893 190.165 28.838 190.661 28.7354C191.174 28.6329 191.644 28.5047 192.071 28.3508C192.498 28.1799 192.866 28.0175 193.174 27.8636V30.3508C192.575 30.6072 191.9 30.8124 191.148 30.9662C190.396 31.1372 189.55 31.2226 188.609 31.2226ZM200.7 30.838L195.29 17.9661H198.162L202.572 28.6585L201.931 28.7354L206.034 17.9661H208.828L203.393 30.838H200.7ZM215.21 31.2226C214.287 31.2226 213.5 31.1201 212.851 30.9149C212.218 30.7269 211.594 30.4876 210.979 30.197V27.6585C211.423 27.932 211.859 28.1799 212.287 28.4021C212.714 28.6072 213.158 28.7696 213.62 28.8893C214.099 29.0089 214.629 29.0688 215.21 29.0688C215.945 29.0688 216.517 28.9149 216.928 28.6072C217.355 28.2995 217.569 27.9149 217.569 27.4534C217.569 27.0602 217.432 26.7525 217.158 26.5303C216.902 26.3081 216.569 26.12 216.158 25.9662C215.748 25.8123 215.321 25.6585 214.876 25.5046C214.415 25.385 213.953 25.2482 213.492 25.0944C213.03 24.9234 212.603 24.7012 212.21 24.4277C211.834 24.1371 211.526 23.7696 211.287 23.3251C211.064 22.8807 210.953 22.3337 210.953 21.6841C210.953 20.9661 211.099 20.3593 211.389 19.8635C211.68 19.3507 212.056 18.9405 212.517 18.6328C212.996 18.308 213.517 18.0772 214.082 17.9405C214.663 17.7866 215.227 17.7097 215.774 17.7097C216.68 17.7268 217.415 17.8379 217.979 18.043C218.56 18.2481 219.124 18.496 219.671 18.7866L219.697 21.0943C219.082 20.7695 218.5 20.4875 217.953 20.2482C217.406 20.0088 216.774 19.8892 216.056 19.8892C215.389 19.8892 214.834 20.0174 214.389 20.2738C213.945 20.5131 213.723 20.8721 213.723 21.3507C213.723 21.761 213.842 22.0858 214.082 22.3251C214.338 22.5644 214.663 22.7525 215.056 22.8892C215.466 23.026 215.902 23.1627 216.364 23.2995C216.791 23.4362 217.235 23.5815 217.697 23.7354C218.158 23.8721 218.586 24.0773 218.979 24.3508C219.372 24.6243 219.688 24.9833 219.928 25.4277C220.184 25.8722 220.312 26.4534 220.312 27.1713C220.295 28.1286 220.039 28.9064 219.543 29.5047C219.064 30.103 218.432 30.5389 217.646 30.8124C216.859 31.0859 216.047 31.2226 215.21 31.2226Z" fill="white"/>
</svg>
